<?xml version="1.0" encoding="UTF-8"?>
<svg id="uuid-b695bbb0-9c2e-47ad-b2db-936fead41198" xmlns="http://www.w3.org/2000/svg" version="1.1" viewBox="0 0 675 345.8">
  <!-- Generator: Adobe Illustrator 29.1.0, SVG Export Plug-In . SVG Version: 2.1.0 Build 142)  -->
  <defs>
    <style>
      .st0 {
        fill: #0788d8;
      }
    </style>
  </defs>
  <g>
    <path d="M94.4,111.3c0,3.6-.5,6.9-1.4,9.8s-2.1,5.4-3.6,7.6c-1.5,2.2-3.3,4-5.3,5.6-2,1.5-4.1,2.8-6.3,3.8s-4.4,1.7-6.6,2.1c-2.2.5-4.3.7-6.3.7H7.9v-21h56.8c2.9,0,5-.7,6.5-2.2,1.5-1.5,2.2-3.6,2.2-6.3-.3-5.6-3.1-8.4-8.5-8.4h-32.6c-4.6,0-8.6-.8-11.8-2.4-3.2-1.6-5.9-3.6-7.9-6.1-2-2.4-3.5-5-4.4-7.8-.9-2.8-1.3-5.4-1.3-7.8,0-4.7.8-8.6,2.5-11.8s3.8-5.8,6.3-7.8c2.5-2,5.3-3.4,8.2-4.3,3-.9,5.7-1.3,8.3-1.3h51.7v21h-51.5c-1.1,0-1.9.1-2.5.4-.6.2-1.1.6-1.4,1s-.5.8-.5,1.3c0,.5,0,.9,0,1.3,0,.9.2,1.5.5,2,.3.5.6.8,1,1.1.4.2.9.3,1.4.4.5,0,1,0,1.5,0h32.6c5.4,0,10,1,13.8,2.9,3.8,1.9,6.8,4.4,9.1,7.3s4,6.1,5.1,9.6c1.1,3.4,1.6,6.7,1.6,9.6h0Z"/>
    <path d="M205.5,111.3c0,3.6-.5,6.9-1.4,9.8s-2.1,5.4-3.6,7.6c-1.5,2.2-3.3,4-5.3,5.6-2,1.5-4.1,2.8-6.3,3.8s-4.4,1.7-6.6,2.1c-2.2.5-4.3.7-6.3.7h-37.9v-21h37.9c2.8,0,4.9-.7,6.3-2.2,1.4-1.5,2.1-3.6,2.1-6.3v-28.3c0-2.9-.7-5.1-2.1-6.5-1.4-1.4-3.5-2.1-6.3-2.1h-37.8c-2.9,0-5,.7-6.5,2.1-1.5,1.4-2.2,3.5-2.2,6.3v85.3h-21v-85.3c0-3.6.5-6.8,1.4-9.7s2.1-5.4,3.7-7.6,3.3-4,5.3-5.6c2-1.5,4.1-2.8,6.3-3.8s4.4-1.7,6.6-2.1c2.2-.5,4.3-.7,6.3-.7h37.9c3.6,0,6.9.5,9.7,1.4,2.9.9,5.4,2.1,7.6,3.6s4,3.3,5.6,5.3c1.5,2,2.8,4.1,3.8,6.3,1,2.2,1.7,4.4,2.1,6.6s.7,4.3.7,6.3v28.5h0Z"/>
    <path d="M313.8,111.9c0,2.9-.5,6.1-1.5,9.4-1,3.4-2.7,6.5-5,9.4-2.3,2.9-5.3,5.3-9,7.2s-8.2,2.9-13.5,2.9h-37.9c-2.9,0-6.1-.5-9.4-1.5-3.4-1-6.5-2.7-9.4-5-2.9-2.3-5.3-5.3-7.2-9-1.9-3.7-2.9-8.2-2.9-13.5s.5-6.1,1.5-9.5c1-3.4,2.7-6.5,5-9.4,2.3-2.9,5.3-5.3,9-7.2,3.7-1.9,8.2-2.9,13.5-2.9h37.9v20.1h-37.9c-2.9,0-5.1.9-6.6,2.6s-2.4,3.9-2.4,6.5.9,4.9,2.7,6.4c1.8,1.5,3.9,2.3,6.4,2.3h37.8c2.9,0,5.1-.9,6.6-2.6,1.6-1.7,2.4-3.9,2.4-6.5v-29.4c0-2.8-.9-4.9-2.5-6.6s-3.8-2.4-6.4-2.4h-46.2v-20h46.2c2.9,0,6,.5,9.4,1.5,3.4,1,6.5,2.7,9.4,5s5.3,5.3,7.2,9,2.9,8.2,2.9,13.5v29.5h0Z"/>
    <path d="M416.4,140.8h-57c-2.9,0-6.1-.5-9.5-1.5-3.5-1-6.6-2.7-9.6-5.1-2.9-2.4-5.4-5.4-7.4-9.1-2-3.8-3-8.3-3-13.8v-28.5c0-2,.2-4.1.7-6.3s1.2-4.4,2.1-6.6c1-2.2,2.2-4.3,3.8-6.3,1.5-2,3.4-3.8,5.6-5.3s4.7-2.7,7.6-3.6c2.9-.9,6.1-1.4,9.7-1.4h57v21h-57c-2.8,0-4.8.7-6.3,2.1s-2.1,3.6-2.1,6.5v28.3c0,2.8.7,4.8,2.2,6.3,1.5,1.5,3.6,2.2,6.4,2.2h56.9v21h0Z"/>
    <path d="M527.2,82.3c0,2.9-.5,6.1-1.5,9.4-1,3.4-2.7,6.5-5,9.4-2.3,2.9-5.3,5.3-9,7.2-3.7,1.9-8.2,2.9-13.5,2.9h-37.9v-20h37.9c2.9,0,5.1-.9,6.6-2.6s2.4-3.9,2.4-6.5-.9-4.9-2.6-6.5-3.9-2.3-6.4-2.3h-37.9c-2.9,0-5.1.9-6.6,2.6s-2.4,3.9-2.4,6.5v29.4c0,2.8.9,5,2.6,6.6,1.8,1.6,3.9,2.3,6.5,2.3h37.8v20.1h-37.9c-2.9,0-6-.5-9.4-1.5-3.4-1-6.5-2.7-9.4-5-2.9-2.3-5.3-5.3-7.2-9-1.9-3.7-2.9-8.2-2.9-13.5v-29.5c0-2.9.5-6.1,1.5-9.4,1-3.4,2.7-6.5,5-9.4s5.3-5.3,9-7.2c3.7-1.9,8.2-2.9,13.5-2.9h37.9c2.9,0,6,.5,9.4,1.5,3.4,1,6.5,2.7,9.4,5,2.9,2.3,5.3,5.3,7.2,9s2.9,8.2,2.9,13.5Z"/>
    <path class="st0" d="M94.4,269.1c0,3.6-.5,6.9-1.4,9.8s-2.1,5.4-3.6,7.6-3.3,4-5.3,5.6c-2,1.5-4.1,2.8-6.3,3.8s-4.4,1.7-6.6,2.1c-2.2.5-4.3.7-6.3.7H7.9v-21h56.8c2.9,0,5-.7,6.5-2.2,1.5-1.5,2.2-3.6,2.2-6.3-.3-5.6-3.1-8.4-8.5-8.4h-32.6c-4.6,0-8.6-.8-11.8-2.4-3.2-1.6-5.9-3.6-7.9-6.1-2-2.4-3.5-5-4.4-7.9-.9-2.8-1.3-5.4-1.3-7.9,0-4.7.8-8.6,2.5-11.9s3.8-5.8,6.3-7.8c2.5-2,5.3-3.4,8.2-4.3,3-.9,5.7-1.3,8.3-1.3h51.7v21h-51.5c-1.1,0-1.9.1-2.5.4-.6.2-1.1.6-1.4,1s-.5.8-.5,1.3c0,.5,0,.9,0,1.3,0,.9.2,1.5.5,2,.3.5.6.8,1,1.1.4.2.9.3,1.4.4.5,0,1,0,1.5,0h32.6c5.4,0,10,1,13.8,2.9,3.8,1.9,6.8,4.4,9.1,7.3s4,6.1,5.1,9.6c1.1,3.5,1.6,6.7,1.6,9.6h0Z"/>
    <path class="st0" d="M204.2,269.1c0,3.6-.5,6.9-1.4,9.8s-2.1,5.4-3.6,7.6-3.3,4-5.3,5.6c-2,1.5-4.1,2.8-6.3,3.8-2.2,1-4.4,1.7-6.6,2.1-2.2.5-4.4.7-6.4.7h-37.9c-2.9,0-6.1-.5-9.5-1.5-3.4-1-6.7-2.7-9.6-5.1s-5.4-5.4-7.4-9.1-2.9-8.3-2.9-13.8v-28.5c0-5.4,1-10,2.9-13.7,2-3.8,4.4-6.8,7.4-9.1s6.1-4,9.6-5.1c3.4-1,6.6-1.5,9.5-1.5h37.9c5.4,0,10,1,13.8,2.9s6.8,4.4,9.1,7.3c2.3,2.9,4,6.1,5.1,9.6,1.1,3.4,1.6,6.7,1.6,9.6v28.5h0ZM183.2,240.8c0-2.9-.7-5.1-2.2-6.5-1.5-1.4-3.6-2.1-6.3-2.1h-37.8c-2.8,0-4.9.7-6.4,2.1-1.5,1.4-2.2,3.5-2.2,6.3v28.5c0,2.8.7,4.9,2.2,6.3s3.6,2.2,6.4,2.2h37.8c2.9,0,5-.7,6.4-2.2,1.4-1.5,2.1-3.6,2.1-6.3v-28.3h0Z"/>
    <path class="st0" d="M317.7,288c0,1.5-.3,2.9-.8,4.2-.5,1.3-1.3,2.4-2.2,3.4-.9.9-2,1.7-3.3,2.2-1.3.5-2.6.8-4.1.8h-47.6c-2.6,0-5.4-.3-8.3-.9-2.9-.6-5.8-1.5-8.7-2.9s-5.6-3-8.3-5-5-4.5-7-7.4c-2-2.9-3.6-6.2-4.8-10-1.2-3.8-1.8-8-1.8-12.8v-48.5h21v48.5c0,2.8.5,5.2,1.4,7.4.9,2.2,2.2,4.1,3.8,5.6s3.5,2.8,5.7,3.6,4.5,1.2,7.1,1.2h36.8v-66.4h21v76.8h0Z"/>
    <path class="st0" d="M434.4,298.6h-21v-48.5c0-2.8-.5-5.2-1.4-7.4-.9-2.2-2.2-4.1-3.8-5.6s-3.5-2.8-5.7-3.6c-2.2-.8-4.5-1.2-7.1-1.2h-36.8v66.4h-21v-77c0-1.5.3-2.8.8-4.1.5-1.3,1.3-2.4,2.3-3.3,1-.9,2.1-1.7,3.4-2.2,1.3-.5,2.7-.8,4.1-.8h47.4c2.6,0,5.4.3,8.4.9s5.9,1.6,8.7,2.9c2.9,1.3,5.6,3,8.2,5,2.6,2,4.9,4.5,7,7.4,2,2.9,3.6,6.2,4.8,10,1.2,3.8,1.8,8,1.8,12.8v48.5h0Z"/>
    <path class="st0" d="M548.7,269.1c0,3.6-.5,6.9-1.4,9.8s-2.1,5.4-3.6,7.6-3.3,4-5.3,5.6c-2,1.5-4.1,2.8-6.3,3.8s-4.4,1.7-6.6,2.1c-2.2.5-4.4.7-6.3.7h-37.9c-3.6,0-6.9-.5-9.7-1.4s-5.4-2.1-7.6-3.7-4-3.3-5.6-5.3c-1.5-2-2.8-4.1-3.8-6.3-1-2.2-1.7-4.4-2.1-6.6-.5-2.2-.7-4.3-.7-6.3v-28.5c0-5.4,1-10,3-13.7s4.4-6.8,7.4-9.1c2.9-2.4,6.1-4,9.6-5.1,3.5-1,6.6-1.5,9.5-1.5h37.9v21h-37.8c-2.8,0-4.9.7-6.4,2.1-1.5,1.4-2.2,3.5-2.2,6.3v28.3c0,2.9.7,5,2.1,6.5,1.4,1.5,3.5,2.2,6.3,2.2h37.9c2.9,0,5-.7,6.4-2.2s2.1-3.6,2.1-6.3v-94.9h21v94.9h0Z"/>
  </g>
  <ellipse class="st0" cx="600.2" cy="151.8" rx="8.3" ry="130.9"/>
  <ellipse cx="620.7" cy="179.1" rx="8.3" ry="130.9"/>
  <ellipse class="st0" cx="638.8" cy="180.3" rx="4.8" ry="75"/>
  <ellipse cx="655.9" cy="159.4" rx="6.9" ry="108.8"/>
  <ellipse class="st0" cx="671.6" cy="200.9" rx="3.4" ry="108.8"/>
</svg>